solid ASCII
  facet normal -1.000000e+00 0.000000e+00 0.000000e+00
    outer loop
      vertex   -1.500000e-02 5.300000e-02 -7.230000e-02
      vertex   -1.500000e-02 7.300000e-02 -7.230000e-02
      vertex   -1.500000e-02 5.300000e-02 -1.723000e-01
    endloop
  endfacet
  facet normal -1.000000e+00 0.000000e+00 0.000000e+00
    outer loop
      vertex   -1.500000e-02 5.300000e-02 -1.723000e-01
      vertex   -1.500000e-02 7.300000e-02 -7.230000e-02
      vertex   -1.500000e-02 7.300000e-02 -1.723000e-01
    endloop
  endfacet
  facet normal -0.000000e+00 -1.000000e+00 -0.000000e+00
    outer loop
      vertex   1.500000e-02 5.300000e-02 -7.230000e-02
      vertex   -1.500000e-02 5.300000e-02 -7.230000e-02
      vertex   1.500000e-02 5.300000e-02 -1.723000e-01
    endloop
  endfacet
  facet normal 0.000000e+00 -1.000000e+00 0.000000e+00
    outer loop
      vertex   1.500000e-02 5.300000e-02 -1.723000e-01
      vertex   -1.500000e-02 5.300000e-02 -7.230000e-02
      vertex   -1.500000e-02 5.300000e-02 -1.723000e-01
    endloop
  endfacet
  facet normal 1.000000e+00 0.000000e+00 0.000000e+00
    outer loop
      vertex   1.500000e-02 7.300000e-02 -7.230000e-02
      vertex   1.500000e-02 5.300000e-02 -7.230000e-02
      vertex   1.500000e-02 7.300000e-02 -1.723000e-01
    endloop
  endfacet
  facet normal 1.000000e+00 0.000000e+00 0.000000e+00
    outer loop
      vertex   1.500000e-02 7.300000e-02 -1.723000e-01
      vertex   1.500000e-02 5.300000e-02 -7.230000e-02
      vertex   1.500000e-02 5.300000e-02 -1.723000e-01
    endloop
  endfacet
  facet normal 0.000000e+00 0.000000e+00 -1.000000e+00
    outer loop
      vertex   1.500000e-02 5.300000e-02 -1.723000e-01
      vertex   -1.500000e-02 5.300000e-02 -1.723000e-01
      vertex   1.500000e-02 7.300000e-02 -1.723000e-01
    endloop
  endfacet
  facet normal -0.000000e+00 0.000000e+00 -1.000000e+00
    outer loop
      vertex   1.500000e-02 7.300000e-02 -1.723000e-01
      vertex   -1.500000e-02 5.300000e-02 -1.723000e-01
      vertex   -1.500000e-02 7.300000e-02 -1.723000e-01
    endloop
  endfacet
  facet normal 1.000000e+00 0.000000e+00 0.000000e+00
    outer loop
      vertex   1.500000e-02 -5.300000e-02 -7.230000e-02
      vertex   1.500000e-02 -7.300000e-02 -7.230000e-02
      vertex   1.500000e-02 -5.300000e-02 -1.723000e-01
    endloop
  endfacet
  facet normal 1.000000e+00 0.000000e+00 0.000000e+00
    outer loop
      vertex   1.500000e-02 -5.300000e-02 -1.723000e-01
      vertex   1.500000e-02 -7.300000e-02 -7.230000e-02
      vertex   1.500000e-02 -7.300000e-02 -1.723000e-01
    endloop
  endfacet
  facet normal -0.000000e+00 1.000000e+00 0.000000e+00
    outer loop
      vertex   -1.500000e-02 -5.300000e-02 -7.230000e-02
      vertex   1.500000e-02 -5.300000e-02 -7.230000e-02
      vertex   -1.500000e-02 -5.300000e-02 -1.723000e-01
    endloop
  endfacet
  facet normal 0.000000e+00 1.000000e+00 0.000000e+00
    outer loop
      vertex   -1.500000e-02 -5.300000e-02 -1.723000e-01
      vertex   1.500000e-02 -5.300000e-02 -7.230000e-02
      vertex   1.500000e-02 -5.300000e-02 -1.723000e-01
    endloop
  endfacet
  facet normal -1.000000e+00 0.000000e+00 0.000000e+00
    outer loop
      vertex   -1.500000e-02 -7.300000e-02 -7.230000e-02
      vertex   -1.500000e-02 -5.300000e-02 -7.230000e-02
      vertex   -1.500000e-02 -7.300000e-02 -1.723000e-01
    endloop
  endfacet
  facet normal -1.000000e+00 0.000000e+00 0.000000e+00
    outer loop
      vertex   -1.500000e-02 -7.300000e-02 -1.723000e-01
      vertex   -1.500000e-02 -5.300000e-02 -7.230000e-02
      vertex   -1.500000e-02 -5.300000e-02 -1.723000e-01
    endloop
  endfacet
  facet normal 0.000000e+00 0.000000e+00 -1.000000e+00
    outer loop
      vertex   1.500000e-02 -7.300000e-02 -1.723000e-01
      vertex   -1.500000e-02 -7.300000e-02 -1.723000e-01
      vertex   1.500000e-02 -5.300000e-02 -1.723000e-01
    endloop
  endfacet
  facet normal -0.000000e+00 0.000000e+00 -1.000000e+00
    outer loop
      vertex   1.500000e-02 -5.300000e-02 -1.723000e-01
      vertex   -1.500000e-02 -7.300000e-02 -1.723000e-01
      vertex   -1.500000e-02 -5.300000e-02 -1.723000e-01
    endloop
  endfacet
  facet normal -0.000000e+00 -0.000000e+00 -1.000000e+00
    outer loop
      vertex   -1.500000e-02 7.300000e-02 -7.230000e-02
      vertex   -1.500000e-02 5.300000e-02 -7.230000e-02
      vertex   -2.500000e-02 7.300000e-02 -7.230000e-02
    endloop
  endfacet
  facet normal 0.000000e+00 0.000000e+00 -1.000000e+00
    outer loop
      vertex   -2.500000e-02 7.300000e-02 -7.230000e-02
      vertex   -1.500000e-02 5.300000e-02 -7.230000e-02
      vertex   -2.500000e-02 -7.300000e-02 -7.230000e-02
    endloop
  endfacet
  facet normal 0.000000e+00 0.000000e+00 -1.000000e+00
    outer loop
      vertex   -2.500000e-02 -7.300000e-02 -7.230000e-02
      vertex   -1.500000e-02 5.300000e-02 -7.230000e-02
      vertex   -1.500000e-02 -5.300000e-02 -7.230000e-02
    endloop
  endfacet
  facet normal 0.000000e+00 0.000000e+00 -1.000000e+00
    outer loop
      vertex   -2.500000e-02 -7.300000e-02 -7.230000e-02
      vertex   -1.500000e-02 -5.300000e-02 -7.230000e-02
      vertex   -1.500000e-02 -7.300000e-02 -7.230000e-02
    endloop
  endfacet
  facet normal 0.000000e+00 0.000000e+00 -1.000000e+00
    outer loop
      vertex   -1.500000e-02 5.300000e-02 -7.230000e-02
      vertex   1.500000e-02 5.300000e-02 -7.230000e-02
      vertex   -1.500000e-02 -5.300000e-02 -7.230000e-02
    endloop
  endfacet
  facet normal 0.000000e+00 0.000000e+00 -1.000000e+00
    outer loop
      vertex   -1.500000e-02 -5.300000e-02 -7.230000e-02
      vertex   1.500000e-02 5.300000e-02 -7.230000e-02
      vertex   1.500000e-02 -5.300000e-02 -7.230000e-02
    endloop
  endfacet
  facet normal 0.000000e+00 0.000000e+00 -1.000000e+00
    outer loop
      vertex   1.500000e-02 -5.300000e-02 -7.230000e-02
      vertex   1.500000e-02 5.300000e-02 -7.230000e-02
      vertex   2.500000e-02 -7.300000e-02 -7.230000e-02
    endloop
  endfacet
  facet normal 0.000000e+00 0.000000e+00 -1.000000e+00
    outer loop
      vertex   1.500000e-02 -5.300000e-02 -7.230000e-02
      vertex   2.500000e-02 -7.300000e-02 -7.230000e-02
      vertex   1.500000e-02 -7.300000e-02 -7.230000e-02
    endloop
  endfacet
  facet normal 0.000000e+00 0.000000e+00 -1.000000e+00
    outer loop
      vertex   1.500000e-02 7.300000e-02 -7.230000e-02
      vertex   2.500000e-02 7.300000e-02 -7.230000e-02
      vertex   1.500000e-02 5.300000e-02 -7.230000e-02
    endloop
  endfacet
  facet normal 0.000000e+00 0.000000e+00 -1.000000e+00
    outer loop
      vertex   1.500000e-02 5.300000e-02 -7.230000e-02
      vertex   2.500000e-02 7.300000e-02 -7.230000e-02
      vertex   2.500000e-02 -7.300000e-02 -7.230000e-02
    endloop
  endfacet
  facet normal 0.000000e+00 0.000000e+00 1.000000e+00
    outer loop
      vertex   2.500000e-02 -4.250000e-02 0.000000e+00
      vertex   -2.500000e-02 -4.250000e-02 0.000000e+00
      vertex   2.500000e-02 -7.300000e-02 0.000000e+00
    endloop
  endfacet
  facet normal 0.000000e+00 0.000000e+00 1.000000e+00
    outer loop
      vertex   2.500000e-02 -7.300000e-02 0.000000e+00
      vertex   -2.500000e-02 -4.250000e-02 0.000000e+00
      vertex   -2.500000e-02 -7.300000e-02 0.000000e+00
    endloop
  endfacet
  facet normal 0.000000e+00 0.000000e+00 1.000000e+00
    outer loop
      vertex   -2.500000e-02 4.250000e-02 0.000000e+00
      vertex   2.500000e-02 4.250000e-02 0.000000e+00
      vertex   -2.500000e-02 7.300000e-02 0.000000e+00
    endloop
  endfacet
  facet normal -0.000000e+00 0.000000e+00 1.000000e+00
    outer loop
      vertex   -2.500000e-02 7.300000e-02 0.000000e+00
      vertex   2.500000e-02 4.250000e-02 0.000000e+00
      vertex   2.500000e-02 7.300000e-02 0.000000e+00
    endloop
  endfacet
  facet normal -1.000000e+00 0.000000e+00 0.000000e+00
    outer loop
      vertex   -2.500000e-02 -7.300000e-02 0.000000e+00
      vertex   -2.500000e-02 -4.250000e-02 0.000000e+00
      vertex   -2.500000e-02 -7.300000e-02 -7.230000e-02
    endloop
  endfacet
  facet normal -1.000000e+00 0.000000e+00 0.000000e+00
    outer loop
      vertex   -2.500000e-02 -7.300000e-02 -7.230000e-02
      vertex   -2.500000e-02 -4.250000e-02 0.000000e+00
      vertex   -2.500000e-02 4.250000e-02 0.000000e+00
    endloop
  endfacet
  facet normal -1.000000e+00 0.000000e+00 0.000000e+00
    outer loop
      vertex   -2.500000e-02 -7.300000e-02 -7.230000e-02
      vertex   -2.500000e-02 4.250000e-02 0.000000e+00
      vertex   -2.500000e-02 7.300000e-02 -7.230000e-02
    endloop
  endfacet
  facet normal -1.000000e+00 0.000000e+00 0.000000e+00
    outer loop
      vertex   -2.500000e-02 7.300000e-02 -7.230000e-02
      vertex   -2.500000e-02 4.250000e-02 0.000000e+00
      vertex   -2.500000e-02 7.300000e-02 0.000000e+00
    endloop
  endfacet
  facet normal 0.000000e+00 -1.000000e+00 0.000000e+00
    outer loop
      vertex   2.500000e-02 -7.300000e-02 -7.230000e-02
      vertex   2.500000e-02 -7.300000e-02 0.000000e+00
      vertex   1.500000e-02 -7.300000e-02 -7.230000e-02
    endloop
  endfacet
  facet normal 0.000000e+00 -1.000000e+00 0.000000e+00
    outer loop
      vertex   1.500000e-02 -7.300000e-02 -7.230000e-02
      vertex   2.500000e-02 -7.300000e-02 0.000000e+00
      vertex   -2.500000e-02 -7.300000e-02 0.000000e+00
    endloop
  endfacet
  facet normal 0.000000e+00 -1.000000e+00 0.000000e+00
    outer loop
      vertex   1.500000e-02 -7.300000e-02 -7.230000e-02
      vertex   -2.500000e-02 -7.300000e-02 0.000000e+00
      vertex   -1.500000e-02 -7.300000e-02 -7.230000e-02
    endloop
  endfacet
  facet normal 0.000000e+00 -1.000000e+00 0.000000e+00
    outer loop
      vertex   -1.500000e-02 -7.300000e-02 -7.230000e-02
      vertex   -2.500000e-02 -7.300000e-02 0.000000e+00
      vertex   -2.500000e-02 -7.300000e-02 -7.230000e-02
    endloop
  endfacet
  facet normal 0.000000e+00 -1.000000e+00 0.000000e+00
    outer loop
      vertex   -1.500000e-02 -7.300000e-02 -1.723000e-01
      vertex   1.500000e-02 -7.300000e-02 -1.723000e-01
      vertex   -1.500000e-02 -7.300000e-02 -7.230000e-02
    endloop
  endfacet
  facet normal 0.000000e+00 -1.000000e+00 0.000000e+00
    outer loop
      vertex   -1.500000e-02 -7.300000e-02 -7.230000e-02
      vertex   1.500000e-02 -7.300000e-02 -1.723000e-01
      vertex   1.500000e-02 -7.300000e-02 -7.230000e-02
    endloop
  endfacet
  facet normal 1.000000e+00 0.000000e+00 0.000000e+00
    outer loop
      vertex   2.500000e-02 7.300000e-02 0.000000e+00
      vertex   2.500000e-02 4.250000e-02 0.000000e+00
      vertex   2.500000e-02 7.300000e-02 -7.230000e-02
    endloop
  endfacet
  facet normal 1.000000e+00 0.000000e+00 0.000000e+00
    outer loop
      vertex   2.500000e-02 7.300000e-02 -7.230000e-02
      vertex   2.500000e-02 4.250000e-02 0.000000e+00
      vertex   2.500000e-02 -4.250000e-02 0.000000e+00
    endloop
  endfacet
  facet normal 1.000000e+00 0.000000e+00 0.000000e+00
    outer loop
      vertex   2.500000e-02 7.300000e-02 -7.230000e-02
      vertex   2.500000e-02 -4.250000e-02 0.000000e+00
      vertex   2.500000e-02 -7.300000e-02 -7.230000e-02
    endloop
  endfacet
  facet normal 1.000000e+00 0.000000e+00 0.000000e+00
    outer loop
      vertex   2.500000e-02 -7.300000e-02 -7.230000e-02
      vertex   2.500000e-02 -4.250000e-02 0.000000e+00
      vertex   2.500000e-02 -7.300000e-02 0.000000e+00
    endloop
  endfacet
  facet normal 0.000000e+00 1.000000e+00 0.000000e+00
    outer loop
      vertex   -2.500000e-02 7.300000e-02 -7.230000e-02
      vertex   -2.500000e-02 7.300000e-02 0.000000e+00
      vertex   -1.500000e-02 7.300000e-02 -7.230000e-02
    endloop
  endfacet
  facet normal 0.000000e+00 1.000000e+00 -0.000000e+00
    outer loop
      vertex   -1.500000e-02 7.300000e-02 -7.230000e-02
      vertex   -2.500000e-02 7.300000e-02 0.000000e+00
      vertex   2.500000e-02 7.300000e-02 0.000000e+00
    endloop
  endfacet
  facet normal 0.000000e+00 1.000000e+00 0.000000e+00
    outer loop
      vertex   -1.500000e-02 7.300000e-02 -7.230000e-02
      vertex   2.500000e-02 7.300000e-02 0.000000e+00
      vertex   1.500000e-02 7.300000e-02 -7.230000e-02
    endloop
  endfacet
  facet normal 0.000000e+00 1.000000e+00 0.000000e+00
    outer loop
      vertex   1.500000e-02 7.300000e-02 -7.230000e-02
      vertex   2.500000e-02 7.300000e-02 0.000000e+00
      vertex   2.500000e-02 7.300000e-02 -7.230000e-02
    endloop
  endfacet
  facet normal 0.000000e+00 1.000000e+00 -0.000000e+00
    outer loop
      vertex   1.500000e-02 7.300000e-02 -1.723000e-01
      vertex   -1.500000e-02 7.300000e-02 -1.723000e-01
      vertex   1.500000e-02 7.300000e-02 -7.230000e-02
    endloop
  endfacet
  facet normal 0.000000e+00 1.000000e+00 0.000000e+00
    outer loop
      vertex   1.500000e-02 7.300000e-02 -7.230000e-02
      vertex   -1.500000e-02 7.300000e-02 -1.723000e-01
      vertex   -1.500000e-02 7.300000e-02 -7.230000e-02
    endloop
  endfacet
  facet normal 0.000000e+00 0.000000e+00 -1.000000e+00
    outer loop
      vertex   2.500000e-02 4.250000e-02 0.000000e+00
      vertex   4.250000e-02 3.500000e-02 0.000000e+00
      vertex   2.500000e-02 -4.250000e-02 0.000000e+00
    endloop
  endfacet
  facet normal 0.000000e+00 0.000000e+00 -1.000000e+00
    outer loop
      vertex   2.500000e-02 -4.250000e-02 0.000000e+00
      vertex   4.250000e-02 3.500000e-02 0.000000e+00
      vertex   4.250000e-02 -3.500000e-02 0.000000e+00
    endloop
  endfacet
  facet normal 0.000000e+00 0.000000e+00 -1.000000e+00
    outer loop
      vertex   2.500000e-02 -4.250000e-02 0.000000e+00
      vertex   4.250000e-02 -3.500000e-02 0.000000e+00
      vertex   4.250000e-02 -4.250000e-02 0.000000e+00
    endloop
  endfacet
  facet normal 0.000000e+00 0.000000e+00 -1.000000e+00
    outer loop
      vertex   2.500000e-02 4.250000e-02 0.000000e+00
      vertex   4.250000e-02 4.250000e-02 0.000000e+00
      vertex   4.250000e-02 3.500000e-02 0.000000e+00
    endloop
  endfacet
  facet normal 0.000000e+00 0.000000e+00 -1.000000e+00
    outer loop
      vertex   4.250000e-02 3.500000e-02 0.000000e+00
      vertex   9.640000e-02 3.500000e-02 0.000000e+00
      vertex   4.250000e-02 -3.500000e-02 0.000000e+00
    endloop
  endfacet
  facet normal 0.000000e+00 0.000000e+00 -1.000000e+00
    outer loop
      vertex   4.250000e-02 -3.500000e-02 0.000000e+00
      vertex   9.640000e-02 3.500000e-02 0.000000e+00
      vertex   9.640000e-02 -3.500000e-02 0.000000e+00
    endloop
  endfacet
  facet normal 0.000000e+00 0.000000e+00 -1.000000e+00
    outer loop
      vertex   -2.500000e-02 -4.250000e-02 0.000000e+00
      vertex   -4.250000e-02 -4.250000e-02 0.000000e+00
      vertex   -2.500000e-02 4.250000e-02 0.000000e+00
    endloop
  endfacet
  facet normal -0.000000e+00 0.000000e+00 -1.000000e+00
    outer loop
      vertex   -2.500000e-02 4.250000e-02 0.000000e+00
      vertex   -4.250000e-02 -4.250000e-02 0.000000e+00
      vertex   -4.250000e-02 4.250000e-02 0.000000e+00
    endloop
  endfacet
  facet normal 1.000000e+00 0.000000e+00 0.000000e+00
    outer loop
      vertex   9.640000e-02 3.500000e-02 3.300000e-02
      vertex   9.640000e-02 -3.500000e-02 3.300000e-02
      vertex   9.640000e-02 3.500000e-02 0.000000e+00
    endloop
  endfacet
  facet normal 1.000000e+00 0.000000e+00 0.000000e+00
    outer loop
      vertex   9.640000e-02 3.500000e-02 0.000000e+00
      vertex   9.640000e-02 -3.500000e-02 3.300000e-02
      vertex   9.640000e-02 -3.500000e-02 0.000000e+00
    endloop
  endfacet
  facet normal -1.000000e+00 0.000000e+00 0.000000e+00
    outer loop
      vertex   6.640000e-02 3.500000e-02 2.000000e-02
      vertex   6.640000e-02 -3.500000e-02 2.000000e-02
      vertex   6.640000e-02 3.500000e-02 3.300000e-02
    endloop
  endfacet
  facet normal -1.000000e+00 -0.000000e+00 0.000000e+00
    outer loop
      vertex   6.640000e-02 3.500000e-02 3.300000e-02
      vertex   6.640000e-02 -3.500000e-02 2.000000e-02
      vertex   6.640000e-02 -3.500000e-02 3.300000e-02
    endloop
  endfacet
  facet normal 0.000000e+00 0.000000e+00 1.000000e+00
    outer loop
      vertex   9.640000e-02 3.500000e-02 3.300000e-02
      vertex   6.640000e-02 3.500000e-02 3.300000e-02
      vertex   9.640000e-02 -3.500000e-02 3.300000e-02
    endloop
  endfacet
  facet normal 0.000000e+00 0.000000e+00 1.000000e+00
    outer loop
      vertex   9.640000e-02 -3.500000e-02 3.300000e-02
      vertex   6.640000e-02 3.500000e-02 3.300000e-02
      vertex   6.640000e-02 -3.500000e-02 3.300000e-02
    endloop
  endfacet
  facet normal -0.000000e+00 1.000000e+00 0.000000e+00
    outer loop
      vertex   4.250000e-02 3.500000e-02 2.000000e-02
      vertex   6.640000e-02 3.500000e-02 2.000000e-02
      vertex   4.250000e-02 3.500000e-02 0.000000e+00
    endloop
  endfacet
  facet normal 0.000000e+00 1.000000e+00 0.000000e+00
    outer loop
      vertex   4.250000e-02 3.500000e-02 0.000000e+00
      vertex   6.640000e-02 3.500000e-02 2.000000e-02
      vertex   9.640000e-02 3.500000e-02 0.000000e+00
    endloop
  endfacet
  facet normal 0.000000e+00 1.000000e+00 -0.000000e+00
    outer loop
      vertex   9.640000e-02 3.500000e-02 0.000000e+00
      vertex   6.640000e-02 3.500000e-02 2.000000e-02
      vertex   9.640000e-02 3.500000e-02 3.300000e-02
    endloop
  endfacet
  facet normal 0.000000e+00 1.000000e+00 0.000000e+00
    outer loop
      vertex   9.640000e-02 3.500000e-02 3.300000e-02
      vertex   6.640000e-02 3.500000e-02 2.000000e-02
      vertex   6.640000e-02 3.500000e-02 3.300000e-02
    endloop
  endfacet
  facet normal 0.000000e+00 -1.000000e+00 0.000000e+00
    outer loop
      vertex   4.250000e-02 -3.500000e-02 2.000000e-02
      vertex   4.250000e-02 -3.500000e-02 0.000000e+00
      vertex   6.640000e-02 -3.500000e-02 2.000000e-02
    endloop
  endfacet
  facet normal 0.000000e+00 -1.000000e+00 -0.000000e+00
    outer loop
      vertex   6.640000e-02 -3.500000e-02 2.000000e-02
      vertex   4.250000e-02 -3.500000e-02 0.000000e+00
      vertex   9.640000e-02 -3.500000e-02 0.000000e+00
    endloop
  endfacet
  facet normal 0.000000e+00 -1.000000e+00 0.000000e+00
    outer loop
      vertex   6.640000e-02 -3.500000e-02 2.000000e-02
      vertex   9.640000e-02 -3.500000e-02 0.000000e+00
      vertex   9.640000e-02 -3.500000e-02 3.300000e-02
    endloop
  endfacet
  facet normal -0.000000e+00 -1.000000e+00 0.000000e+00
    outer loop
      vertex   9.640000e-02 -3.500000e-02 3.300000e-02
      vertex   6.640000e-02 -3.500000e-02 3.300000e-02
      vertex   6.640000e-02 -3.500000e-02 2.000000e-02
    endloop
  endfacet
  facet normal 1.000000e+00 0.000000e+00 0.000000e+00
    outer loop
      vertex   4.250000e-02 3.500000e-02 0.000000e+00
      vertex   4.250000e-02 4.250000e-02 0.000000e+00
      vertex   4.250000e-02 3.500000e-02 2.000000e-02
    endloop
  endfacet
  facet normal 1.000000e+00 -0.000000e+00 0.000000e+00
    outer loop
      vertex   4.250000e-02 3.500000e-02 2.000000e-02
      vertex   4.250000e-02 4.250000e-02 0.000000e+00
      vertex   4.250000e-02 4.250000e-02 2.000000e-02
    endloop
  endfacet
  facet normal 1.000000e+00 0.000000e+00 0.000000e+00
    outer loop
      vertex   4.250000e-02 -3.500000e-02 2.000000e-02
      vertex   4.250000e-02 -4.250000e-02 2.000000e-02
      vertex   4.250000e-02 -3.500000e-02 0.000000e+00
    endloop
  endfacet
  facet normal 1.000000e+00 0.000000e+00 0.000000e+00
    outer loop
      vertex   4.250000e-02 -3.500000e-02 0.000000e+00
      vertex   4.250000e-02 -4.250000e-02 2.000000e-02
      vertex   4.250000e-02 -4.250000e-02 0.000000e+00
    endloop
  endfacet
  facet normal -1.000000e+00 0.000000e+00 0.000000e+00
    outer loop
      vertex   -4.250000e-02 4.250000e-02 0.000000e+00
      vertex   -4.250000e-02 -4.250000e-02 0.000000e+00
      vertex   -4.250000e-02 4.250000e-02 2.000000e-02
    endloop
  endfacet
  facet normal -1.000000e+00 -0.000000e+00 0.000000e+00
    outer loop
      vertex   -4.250000e-02 4.250000e-02 2.000000e-02
      vertex   -4.250000e-02 -4.250000e-02 0.000000e+00
      vertex   -4.250000e-02 -4.250000e-02 2.000000e-02
    endloop
  endfacet
  facet normal 0.000000e+00 1.000000e+00 -0.000000e+00
    outer loop
      vertex   4.250000e-02 4.250000e-02 0.000000e+00
      vertex   2.500000e-02 4.250000e-02 0.000000e+00
      vertex   4.250000e-02 4.250000e-02 2.000000e-02
    endloop
  endfacet
  facet normal 0.000000e+00 1.000000e+00 0.000000e+00
    outer loop
      vertex   4.250000e-02 4.250000e-02 2.000000e-02
      vertex   2.500000e-02 4.250000e-02 0.000000e+00
      vertex   -2.500000e-02 4.250000e-02 0.000000e+00
    endloop
  endfacet
  facet normal 0.000000e+00 1.000000e+00 0.000000e+00
    outer loop
      vertex   4.250000e-02 4.250000e-02 2.000000e-02
      vertex   -2.500000e-02 4.250000e-02 0.000000e+00
      vertex   -4.250000e-02 4.250000e-02 2.000000e-02
    endloop
  endfacet
  facet normal 0.000000e+00 1.000000e+00 0.000000e+00
    outer loop
      vertex   -4.250000e-02 4.250000e-02 2.000000e-02
      vertex   -2.500000e-02 4.250000e-02 0.000000e+00
      vertex   -4.250000e-02 4.250000e-02 0.000000e+00
    endloop
  endfacet
  facet normal 0.000000e+00 -1.000000e+00 0.000000e+00
    outer loop
      vertex   -4.250000e-02 -4.250000e-02 0.000000e+00
      vertex   -2.500000e-02 -4.250000e-02 0.000000e+00
      vertex   -4.250000e-02 -4.250000e-02 2.000000e-02
    endloop
  endfacet
  facet normal 0.000000e+00 -1.000000e+00 0.000000e+00
    outer loop
      vertex   -4.250000e-02 -4.250000e-02 2.000000e-02
      vertex   -2.500000e-02 -4.250000e-02 0.000000e+00
      vertex   2.500000e-02 -4.250000e-02 0.000000e+00
    endloop
  endfacet
  facet normal 0.000000e+00 -1.000000e+00 0.000000e+00
    outer loop
      vertex   -4.250000e-02 -4.250000e-02 2.000000e-02
      vertex   2.500000e-02 -4.250000e-02 0.000000e+00
      vertex   4.250000e-02 -4.250000e-02 2.000000e-02
    endloop
  endfacet
  facet normal 0.000000e+00 -1.000000e+00 -0.000000e+00
    outer loop
      vertex   4.250000e-02 -4.250000e-02 2.000000e-02
      vertex   2.500000e-02 -4.250000e-02 0.000000e+00
      vertex   4.250000e-02 -4.250000e-02 0.000000e+00
    endloop
  endfacet
  facet normal 0.000000e+00 -0.000000e+00 1.000000e+00
    outer loop
      vertex   4.250000e-02 -4.250000e-02 2.000000e-02
      vertex   4.250000e-02 -3.500000e-02 2.000000e-02
      vertex   -4.250000e-02 -4.250000e-02 2.000000e-02
    endloop
  endfacet
  facet normal 0.000000e+00 0.000000e+00 1.000000e+00
    outer loop
      vertex   -4.250000e-02 -4.250000e-02 2.000000e-02
      vertex   4.250000e-02 -3.500000e-02 2.000000e-02
      vertex   4.250000e-02 3.500000e-02 2.000000e-02
    endloop
  endfacet
  facet normal 0.000000e+00 0.000000e+00 1.000000e+00
    outer loop
      vertex   -4.250000e-02 -4.250000e-02 2.000000e-02
      vertex   4.250000e-02 3.500000e-02 2.000000e-02
      vertex   -4.250000e-02 4.250000e-02 2.000000e-02
    endloop
  endfacet
  facet normal -0.000000e+00 0.000000e+00 1.000000e+00
    outer loop
      vertex   -4.250000e-02 4.250000e-02 2.000000e-02
      vertex   4.250000e-02 3.500000e-02 2.000000e-02
      vertex   4.250000e-02 4.250000e-02 2.000000e-02
    endloop
  endfacet
  facet normal 0.000000e+00 0.000000e+00 1.000000e+00
    outer loop
      vertex   4.250000e-02 -3.500000e-02 2.000000e-02
      vertex   6.640000e-02 -3.500000e-02 2.000000e-02
      vertex   4.250000e-02 3.500000e-02 2.000000e-02
    endloop
  endfacet
  facet normal -0.000000e+00 0.000000e+00 1.000000e+00
    outer loop
      vertex   4.250000e-02 3.500000e-02 2.000000e-02
      vertex   6.640000e-02 -3.500000e-02 2.000000e-02
      vertex   6.640000e-02 3.500000e-02 2.000000e-02
    endloop
  endfacet
endsolid
