solid ASCII
  facet normal -1.000000e+00 0.000000e+00 0.000000e+00
    outer loop
      vertex   4.000000e-02 -1.100000e-01 -1.000000e-01
      vertex   4.000000e-02 -4.000000e-02 -1.000000e-01
      vertex   4.000000e-02 -1.100000e-01 -9.000000e-01
    endloop
  endfacet
  facet normal -1.000000e+00 0.000000e+00 0.000000e+00
    outer loop
      vertex   4.000000e-02 -1.100000e-01 -9.000000e-01
      vertex   4.000000e-02 -4.000000e-02 -1.000000e-01
      vertex   4.000000e-02 -4.000000e-02 -9.000000e-01
    endloop
  endfacet
  facet normal -0.000000e+00 -1.000000e+00 -0.000000e+00
    outer loop
      vertex   1.100000e-01 -1.100000e-01 -1.000000e-01
      vertex   4.000000e-02 -1.100000e-01 -1.000000e-01
      vertex   1.100000e-01 -1.100000e-01 -9.000000e-01
    endloop
  endfacet
  facet normal 0.000000e+00 -1.000000e+00 0.000000e+00
    outer loop
      vertex   1.100000e-01 -1.100000e-01 -9.000000e-01
      vertex   4.000000e-02 -1.100000e-01 -1.000000e-01
      vertex   4.000000e-02 -1.100000e-01 -9.000000e-01
    endloop
  endfacet
  facet normal 1.000000e+00 0.000000e+00 0.000000e+00
    outer loop
      vertex   1.100000e-01 -4.000000e-02 -1.000000e-01
      vertex   1.100000e-01 -1.100000e-01 -1.000000e-01
      vertex   1.100000e-01 -4.000000e-02 -9.000000e-01
    endloop
  endfacet
  facet normal 1.000000e+00 0.000000e+00 0.000000e+00
    outer loop
      vertex   1.100000e-01 -4.000000e-02 -9.000000e-01
      vertex   1.100000e-01 -1.100000e-01 -1.000000e-01
      vertex   1.100000e-01 -1.100000e-01 -9.000000e-01
    endloop
  endfacet
  facet normal -0.000000e+00 1.000000e+00 0.000000e+00
    outer loop
      vertex   4.000000e-02 -4.000000e-02 -1.000000e-01
      vertex   1.100000e-01 -4.000000e-02 -1.000000e-01
      vertex   4.000000e-02 -4.000000e-02 -9.000000e-01
    endloop
  endfacet
  facet normal 0.000000e+00 1.000000e+00 0.000000e+00
    outer loop
      vertex   4.000000e-02 -4.000000e-02 -9.000000e-01
      vertex   1.100000e-01 -4.000000e-02 -1.000000e-01
      vertex   1.100000e-01 -4.000000e-02 -9.000000e-01
    endloop
  endfacet
  facet normal 0.000000e+00 0.000000e+00 -1.000000e+00
    outer loop
      vertex   4.000000e-02 -4.000000e-02 -9.000000e-01
      vertex   1.100000e-01 -4.000000e-02 -9.000000e-01
      vertex   4.000000e-02 -1.100000e-01 -9.000000e-01
    endloop
  endfacet
  facet normal 0.000000e+00 0.000000e+00 -1.000000e+00
    outer loop
      vertex   4.000000e-02 -1.100000e-01 -9.000000e-01
      vertex   1.100000e-01 -4.000000e-02 -9.000000e-01
      vertex   1.100000e-01 -1.100000e-01 -9.000000e-01
    endloop
  endfacet
  facet normal -0.000000e+00 1.000000e+00 0.000000e+00
    outer loop
      vertex   2.290000e+00 -4.000000e-02 -1.000000e-01
      vertex   2.360000e+00 -4.000000e-02 -1.000000e-01
      vertex   2.290000e+00 -4.000000e-02 -9.000000e-01
    endloop
  endfacet
  facet normal 0.000000e+00 1.000000e+00 0.000000e+00
    outer loop
      vertex   2.290000e+00 -4.000000e-02 -9.000000e-01
      vertex   2.360000e+00 -4.000000e-02 -1.000000e-01
      vertex   2.360000e+00 -4.000000e-02 -9.000000e-01
    endloop
  endfacet
  facet normal -1.000000e+00 0.000000e+00 0.000000e+00
    outer loop
      vertex   2.290000e+00 -1.100000e-01 -1.000000e-01
      vertex   2.290000e+00 -4.000000e-02 -1.000000e-01
      vertex   2.290000e+00 -1.100000e-01 -9.000000e-01
    endloop
  endfacet
  facet normal -1.000000e+00 0.000000e+00 0.000000e+00
    outer loop
      vertex   2.290000e+00 -1.100000e-01 -9.000000e-01
      vertex   2.290000e+00 -4.000000e-02 -1.000000e-01
      vertex   2.290000e+00 -4.000000e-02 -9.000000e-01
    endloop
  endfacet
  facet normal -0.000000e+00 -1.000000e+00 -0.000000e+00
    outer loop
      vertex   2.360000e+00 -1.100000e-01 -1.000000e-01
      vertex   2.290000e+00 -1.100000e-01 -1.000000e-01
      vertex   2.360000e+00 -1.100000e-01 -9.000000e-01
    endloop
  endfacet
  facet normal 0.000000e+00 -1.000000e+00 0.000000e+00
    outer loop
      vertex   2.360000e+00 -1.100000e-01 -9.000000e-01
      vertex   2.290000e+00 -1.100000e-01 -1.000000e-01
      vertex   2.290000e+00 -1.100000e-01 -9.000000e-01
    endloop
  endfacet
  facet normal 1.000000e+00 0.000000e+00 0.000000e+00
    outer loop
      vertex   2.360000e+00 -4.000000e-02 -1.000000e-01
      vertex   2.360000e+00 -1.100000e-01 -1.000000e-01
      vertex   2.360000e+00 -4.000000e-02 -9.000000e-01
    endloop
  endfacet
  facet normal 1.000000e+00 0.000000e+00 0.000000e+00
    outer loop
      vertex   2.360000e+00 -4.000000e-02 -9.000000e-01
      vertex   2.360000e+00 -1.100000e-01 -1.000000e-01
      vertex   2.360000e+00 -1.100000e-01 -9.000000e-01
    endloop
  endfacet
  facet normal 0.000000e+00 0.000000e+00 -1.000000e+00
    outer loop
      vertex   2.360000e+00 -1.100000e-01 -9.000000e-01
      vertex   2.290000e+00 -1.100000e-01 -9.000000e-01
      vertex   2.360000e+00 -4.000000e-02 -9.000000e-01
    endloop
  endfacet
  facet normal -0.000000e+00 0.000000e+00 -1.000000e+00
    outer loop
      vertex   2.360000e+00 -4.000000e-02 -9.000000e-01
      vertex   2.290000e+00 -1.100000e-01 -9.000000e-01
      vertex   2.290000e+00 -4.000000e-02 -9.000000e-01
    endloop
  endfacet
  facet normal 1.000000e+00 0.000000e+00 0.000000e+00
    outer loop
      vertex   2.360000e+00 -6.900000e-01 -1.000000e-01
      vertex   2.360000e+00 -7.600000e-01 -1.000000e-01
      vertex   2.360000e+00 -6.900000e-01 -9.000000e-01
    endloop
  endfacet
  facet normal 1.000000e+00 0.000000e+00 0.000000e+00
    outer loop
      vertex   2.360000e+00 -6.900000e-01 -9.000000e-01
      vertex   2.360000e+00 -7.600000e-01 -1.000000e-01
      vertex   2.360000e+00 -7.600000e-01 -9.000000e-01
    endloop
  endfacet
  facet normal -0.000000e+00 1.000000e+00 0.000000e+00
    outer loop
      vertex   2.290000e+00 -6.900000e-01 -1.000000e-01
      vertex   2.360000e+00 -6.900000e-01 -1.000000e-01
      vertex   2.290000e+00 -6.900000e-01 -9.000000e-01
    endloop
  endfacet
  facet normal 0.000000e+00 1.000000e+00 0.000000e+00
    outer loop
      vertex   2.290000e+00 -6.900000e-01 -9.000000e-01
      vertex   2.360000e+00 -6.900000e-01 -1.000000e-01
      vertex   2.360000e+00 -6.900000e-01 -9.000000e-01
    endloop
  endfacet
  facet normal -1.000000e+00 0.000000e+00 0.000000e+00
    outer loop
      vertex   2.290000e+00 -7.600000e-01 -1.000000e-01
      vertex   2.290000e+00 -6.900000e-01 -1.000000e-01
      vertex   2.290000e+00 -7.600000e-01 -9.000000e-01
    endloop
  endfacet
  facet normal -1.000000e+00 0.000000e+00 0.000000e+00
    outer loop
      vertex   2.290000e+00 -7.600000e-01 -9.000000e-01
      vertex   2.290000e+00 -6.900000e-01 -1.000000e-01
      vertex   2.290000e+00 -6.900000e-01 -9.000000e-01
    endloop
  endfacet
  facet normal -0.000000e+00 -1.000000e+00 -0.000000e+00
    outer loop
      vertex   2.360000e+00 -7.600000e-01 -1.000000e-01
      vertex   2.290000e+00 -7.600000e-01 -1.000000e-01
      vertex   2.360000e+00 -7.600000e-01 -9.000000e-01
    endloop
  endfacet
  facet normal 0.000000e+00 -1.000000e+00 0.000000e+00
    outer loop
      vertex   2.360000e+00 -7.600000e-01 -9.000000e-01
      vertex   2.290000e+00 -7.600000e-01 -1.000000e-01
      vertex   2.290000e+00 -7.600000e-01 -9.000000e-01
    endloop
  endfacet
  facet normal 0.000000e+00 0.000000e+00 -1.000000e+00
    outer loop
      vertex   2.360000e+00 -7.600000e-01 -9.000000e-01
      vertex   2.290000e+00 -7.600000e-01 -9.000000e-01
      vertex   2.360000e+00 -6.900000e-01 -9.000000e-01
    endloop
  endfacet
  facet normal -0.000000e+00 0.000000e+00 -1.000000e+00
    outer loop
      vertex   2.360000e+00 -6.900000e-01 -9.000000e-01
      vertex   2.290000e+00 -7.600000e-01 -9.000000e-01
      vertex   2.290000e+00 -6.900000e-01 -9.000000e-01
    endloop
  endfacet
  facet normal 1.000000e+00 0.000000e+00 0.000000e+00
    outer loop
      vertex   1.100000e-01 -6.900000e-01 -1.000000e-01
      vertex   1.100000e-01 -7.600000e-01 -1.000000e-01
      vertex   1.100000e-01 -6.900000e-01 -9.000000e-01
    endloop
  endfacet
  facet normal 1.000000e+00 0.000000e+00 0.000000e+00
    outer loop
      vertex   1.100000e-01 -6.900000e-01 -9.000000e-01
      vertex   1.100000e-01 -7.600000e-01 -1.000000e-01
      vertex   1.100000e-01 -7.600000e-01 -9.000000e-01
    endloop
  endfacet
  facet normal -0.000000e+00 1.000000e+00 0.000000e+00
    outer loop
      vertex   4.000000e-02 -6.900000e-01 -1.000000e-01
      vertex   1.100000e-01 -6.900000e-01 -1.000000e-01
      vertex   4.000000e-02 -6.900000e-01 -9.000000e-01
    endloop
  endfacet
  facet normal 0.000000e+00 1.000000e+00 0.000000e+00
    outer loop
      vertex   4.000000e-02 -6.900000e-01 -9.000000e-01
      vertex   1.100000e-01 -6.900000e-01 -1.000000e-01
      vertex   1.100000e-01 -6.900000e-01 -9.000000e-01
    endloop
  endfacet
  facet normal -1.000000e+00 0.000000e+00 0.000000e+00
    outer loop
      vertex   4.000000e-02 -7.600000e-01 -1.000000e-01
      vertex   4.000000e-02 -6.900000e-01 -1.000000e-01
      vertex   4.000000e-02 -7.600000e-01 -9.000000e-01
    endloop
  endfacet
  facet normal -1.000000e+00 0.000000e+00 0.000000e+00
    outer loop
      vertex   4.000000e-02 -7.600000e-01 -9.000000e-01
      vertex   4.000000e-02 -6.900000e-01 -1.000000e-01
      vertex   4.000000e-02 -6.900000e-01 -9.000000e-01
    endloop
  endfacet
  facet normal -0.000000e+00 -1.000000e+00 -0.000000e+00
    outer loop
      vertex   1.100000e-01 -7.600000e-01 -1.000000e-01
      vertex   4.000000e-02 -7.600000e-01 -1.000000e-01
      vertex   1.100000e-01 -7.600000e-01 -9.000000e-01
    endloop
  endfacet
  facet normal 0.000000e+00 -1.000000e+00 0.000000e+00
    outer loop
      vertex   1.100000e-01 -7.600000e-01 -9.000000e-01
      vertex   4.000000e-02 -7.600000e-01 -1.000000e-01
      vertex   4.000000e-02 -7.600000e-01 -9.000000e-01
    endloop
  endfacet
  facet normal 0.000000e+00 0.000000e+00 -1.000000e+00
    outer loop
      vertex   1.100000e-01 -7.600000e-01 -9.000000e-01
      vertex   4.000000e-02 -7.600000e-01 -9.000000e-01
      vertex   1.100000e-01 -6.900000e-01 -9.000000e-01
    endloop
  endfacet
  facet normal -0.000000e+00 0.000000e+00 -1.000000e+00
    outer loop
      vertex   1.100000e-01 -6.900000e-01 -9.000000e-01
      vertex   4.000000e-02 -7.600000e-01 -9.000000e-01
      vertex   4.000000e-02 -6.900000e-01 -9.000000e-01
    endloop
  endfacet
  facet normal -0.000000e+00 -1.000000e+00 -0.000000e+00
    outer loop
      vertex   2.400000e+00 -8.000000e-01 0.000000e+00
      vertex   0.000000e+00 -8.000000e-01 0.000000e+00
      vertex   2.400000e+00 -8.000000e-01 -1.000000e-01
    endloop
  endfacet
  facet normal 0.000000e+00 -1.000000e+00 0.000000e+00
    outer loop
      vertex   2.400000e+00 -8.000000e-01 -1.000000e-01
      vertex   0.000000e+00 -8.000000e-01 0.000000e+00
      vertex   0.000000e+00 -8.000000e-01 -1.000000e-01
    endloop
  endfacet
  facet normal 1.000000e+00 0.000000e+00 0.000000e+00
    outer loop
      vertex   2.400000e+00 0.000000e+00 0.000000e+00
      vertex   2.400000e+00 -8.000000e-01 0.000000e+00
      vertex   2.400000e+00 0.000000e+00 -1.000000e-01
    endloop
  endfacet
  facet normal 1.000000e+00 0.000000e+00 0.000000e+00
    outer loop
      vertex   2.400000e+00 0.000000e+00 -1.000000e-01
      vertex   2.400000e+00 -8.000000e-01 0.000000e+00
      vertex   2.400000e+00 -8.000000e-01 -1.000000e-01
    endloop
  endfacet
  facet normal -0.000000e+00 1.000000e+00 0.000000e+00
    outer loop
      vertex   0.000000e+00 0.000000e+00 0.000000e+00
      vertex   2.400000e+00 0.000000e+00 0.000000e+00
      vertex   0.000000e+00 0.000000e+00 -1.000000e-01
    endloop
  endfacet
  facet normal 0.000000e+00 1.000000e+00 0.000000e+00
    outer loop
      vertex   0.000000e+00 0.000000e+00 -1.000000e-01
      vertex   2.400000e+00 0.000000e+00 0.000000e+00
      vertex   2.400000e+00 0.000000e+00 -1.000000e-01
    endloop
  endfacet
  facet normal -1.000000e+00 0.000000e+00 0.000000e+00
    outer loop
      vertex   0.000000e+00 -8.000000e-01 0.000000e+00
      vertex   0.000000e+00 0.000000e+00 0.000000e+00
      vertex   0.000000e+00 -8.000000e-01 -1.000000e-01
    endloop
  endfacet
  facet normal -1.000000e+00 0.000000e+00 0.000000e+00
    outer loop
      vertex   0.000000e+00 -8.000000e-01 -1.000000e-01
      vertex   0.000000e+00 0.000000e+00 0.000000e+00
      vertex   0.000000e+00 0.000000e+00 -1.000000e-01
    endloop
  endfacet
  facet normal -0.000000e+00 0.000000e+00 1.000000e+00
    outer loop
      vertex   1.865097e+00 -8.161163e-02 0.000000e+00
      vertex   1.875000e+00 -1.250000e-01 0.000000e+00
      vertex   2.400000e+00 0.000000e+00 0.000000e+00
    endloop
  endfacet
  facet normal 0.000000e+00 0.000000e+00 1.000000e+00
    outer loop
      vertex   2.400000e+00 0.000000e+00 0.000000e+00
      vertex   1.875000e+00 -1.250000e-01 0.000000e+00
      vertex   1.865097e+00 -1.683884e-01 0.000000e+00
    endloop
  endfacet
  facet normal 0.000000e+00 0.000000e+00 1.000000e+00
    outer loop
      vertex   2.400000e+00 0.000000e+00 0.000000e+00
      vertex   1.865097e+00 -1.683884e-01 0.000000e+00
      vertex   1.837349e+00 -2.031831e-01 0.000000e+00
    endloop
  endfacet
  facet normal 0.000000e+00 0.000000e+00 1.000000e+00
    outer loop
      vertex   2.400000e+00 0.000000e+00 0.000000e+00
      vertex   1.837349e+00 -2.031831e-01 0.000000e+00
      vertex   2.400000e+00 -8.000000e-01 0.000000e+00
    endloop
  endfacet
  facet normal 0.000000e+00 0.000000e+00 1.000000e+00
    outer loop
      vertex   2.400000e+00 -8.000000e-01 0.000000e+00
      vertex   1.837349e+00 -2.031831e-01 0.000000e+00
      vertex   1.797252e+00 -2.224928e-01 0.000000e+00
    endloop
  endfacet
  facet normal 0.000000e+00 0.000000e+00 1.000000e+00
    outer loop
      vertex   2.400000e+00 -8.000000e-01 0.000000e+00
      vertex   1.797252e+00 -2.224928e-01 0.000000e+00
      vertex   1.752748e+00 -2.224928e-01 0.000000e+00
    endloop
  endfacet
  facet normal 0.000000e+00 0.000000e+00 1.000000e+00
    outer loop
      vertex   1.712651e+00 -2.031831e-01 0.000000e+00
      vertex   6.373490e-01 -2.031831e-01 0.000000e+00
      vertex   1.752748e+00 -2.224928e-01 0.000000e+00
    endloop
  endfacet
  facet normal 0.000000e+00 0.000000e+00 1.000000e+00
    outer loop
      vertex   1.752748e+00 -2.224928e-01 0.000000e+00
      vertex   6.373490e-01 -2.031831e-01 0.000000e+00
      vertex   5.972521e-01 -2.224928e-01 0.000000e+00
    endloop
  endfacet
  facet normal 0.000000e+00 0.000000e+00 1.000000e+00
    outer loop
      vertex   1.752748e+00 -2.224928e-01 0.000000e+00
      vertex   5.972521e-01 -2.224928e-01 0.000000e+00
      vertex   0.000000e+00 -8.000000e-01 0.000000e+00
    endloop
  endfacet
  facet normal 0.000000e+00 0.000000e+00 1.000000e+00
    outer loop
      vertex   0.000000e+00 -8.000000e-01 0.000000e+00
      vertex   5.972521e-01 -2.224928e-01 0.000000e+00
      vertex   5.527479e-01 -2.224928e-01 0.000000e+00
    endloop
  endfacet
  facet normal 0.000000e+00 0.000000e+00 1.000000e+00
    outer loop
      vertex   0.000000e+00 -8.000000e-01 0.000000e+00
      vertex   5.527479e-01 -2.224928e-01 0.000000e+00
      vertex   5.126510e-01 -2.031831e-01 0.000000e+00
    endloop
  endfacet
  facet normal 0.000000e+00 0.000000e+00 1.000000e+00
    outer loop
      vertex   6.373490e-01 -2.031831e-01 0.000000e+00
      vertex   1.712651e+00 -2.031831e-01 0.000000e+00
      vertex   6.650969e-01 -1.683884e-01 0.000000e+00
    endloop
  endfacet
  facet normal -0.000000e+00 0.000000e+00 1.000000e+00
    outer loop
      vertex   6.650969e-01 -1.683884e-01 0.000000e+00
      vertex   1.712651e+00 -2.031831e-01 0.000000e+00
      vertex   1.684903e+00 -1.683884e-01 0.000000e+00
    endloop
  endfacet
  facet normal 0.000000e+00 0.000000e+00 1.000000e+00
    outer loop
      vertex   6.650969e-01 -1.683884e-01 0.000000e+00
      vertex   1.684903e+00 -1.683884e-01 0.000000e+00
      vertex   6.750000e-01 -1.250000e-01 0.000000e+00
    endloop
  endfacet
  facet normal 0.000000e+00 0.000000e+00 1.000000e+00
    outer loop
      vertex   6.750000e-01 -1.250000e-01 0.000000e+00
      vertex   1.684903e+00 -1.683884e-01 0.000000e+00
      vertex   1.675000e+00 -1.250000e-01 0.000000e+00
    endloop
  endfacet
  facet normal -0.000000e+00 -0.000000e+00 1.000000e+00
    outer loop
      vertex   6.750000e-01 -1.250000e-01 0.000000e+00
      vertex   1.675000e+00 -1.250000e-01 0.000000e+00
      vertex   6.650969e-01 -8.161163e-02 0.000000e+00
    endloop
  endfacet
  facet normal 0.000000e+00 0.000000e+00 1.000000e+00
    outer loop
      vertex   6.650969e-01 -8.161163e-02 0.000000e+00
      vertex   1.675000e+00 -1.250000e-01 0.000000e+00
      vertex   1.684903e+00 -8.161163e-02 0.000000e+00
    endloop
  endfacet
  facet normal -0.000000e+00 -0.000000e+00 1.000000e+00
    outer loop
      vertex   6.650969e-01 -8.161163e-02 0.000000e+00
      vertex   1.684903e+00 -8.161163e-02 0.000000e+00
      vertex   6.373490e-01 -4.681685e-02 0.000000e+00
    endloop
  endfacet
  facet normal 0.000000e+00 0.000000e+00 1.000000e+00
    outer loop
      vertex   6.373490e-01 -4.681685e-02 0.000000e+00
      vertex   1.684903e+00 -8.161163e-02 0.000000e+00
      vertex   1.712651e+00 -4.681685e-02 0.000000e+00
    endloop
  endfacet
  facet normal -0.000000e+00 -0.000000e+00 1.000000e+00
    outer loop
      vertex   6.373490e-01 -4.681685e-02 0.000000e+00
      vertex   1.712651e+00 -4.681685e-02 0.000000e+00
      vertex   5.972521e-01 -2.750721e-02 0.000000e+00
    endloop
  endfacet
  facet normal -0.000000e+00 0.000000e+00 1.000000e+00
    outer loop
      vertex   5.972521e-01 -2.750721e-02 0.000000e+00
      vertex   1.712651e+00 -4.681685e-02 0.000000e+00
      vertex   1.752748e+00 -2.750721e-02 0.000000e+00
    endloop
  endfacet
  facet normal 0.000000e+00 -0.000000e+00 1.000000e+00
    outer loop
      vertex   5.972521e-01 -2.750721e-02 0.000000e+00
      vertex   1.752748e+00 -2.750721e-02 0.000000e+00
      vertex   0.000000e+00 0.000000e+00 0.000000e+00
    endloop
  endfacet
  facet normal -0.000000e+00 0.000000e+00 1.000000e+00
    outer loop
      vertex   0.000000e+00 0.000000e+00 0.000000e+00
      vertex   1.752748e+00 -2.750721e-02 0.000000e+00
      vertex   2.400000e+00 0.000000e+00 0.000000e+00
    endloop
  endfacet
  facet normal 0.000000e+00 0.000000e+00 1.000000e+00
    outer loop
      vertex   2.400000e+00 0.000000e+00 0.000000e+00
      vertex   1.752748e+00 -2.750721e-02 0.000000e+00
      vertex   1.797252e+00 -2.750721e-02 0.000000e+00
    endloop
  endfacet
  facet normal 0.000000e+00 0.000000e+00 1.000000e+00
    outer loop
      vertex   2.400000e+00 0.000000e+00 0.000000e+00
      vertex   1.797252e+00 -2.750721e-02 0.000000e+00
      vertex   1.837349e+00 -4.681685e-02 0.000000e+00
    endloop
  endfacet
  facet normal -0.000000e+00 0.000000e+00 1.000000e+00
    outer loop
      vertex   1.837349e+00 -4.681685e-02 0.000000e+00
      vertex   1.865097e+00 -8.161163e-02 0.000000e+00
      vertex   2.400000e+00 0.000000e+00 0.000000e+00
    endloop
  endfacet
  facet normal 0.000000e+00 0.000000e+00 1.000000e+00
    outer loop
      vertex   0.000000e+00 -8.000000e-01 0.000000e+00
      vertex   5.126510e-01 -2.031831e-01 0.000000e+00
      vertex   0.000000e+00 0.000000e+00 0.000000e+00
    endloop
  endfacet
  facet normal 0.000000e+00 0.000000e+00 1.000000e+00
    outer loop
      vertex   0.000000e+00 0.000000e+00 0.000000e+00
      vertex   5.126510e-01 -2.031831e-01 0.000000e+00
      vertex   4.849031e-01 -1.683884e-01 0.000000e+00
    endloop
  endfacet
  facet normal 0.000000e+00 0.000000e+00 1.000000e+00
    outer loop
      vertex   0.000000e+00 0.000000e+00 0.000000e+00
      vertex   4.849031e-01 -1.683884e-01 0.000000e+00
      vertex   4.750000e-01 -1.250000e-01 0.000000e+00
    endloop
  endfacet
  facet normal 0.000000e+00 -0.000000e+00 1.000000e+00
    outer loop
      vertex   4.750000e-01 -1.250000e-01 0.000000e+00
      vertex   4.849031e-01 -8.161163e-02 0.000000e+00
      vertex   0.000000e+00 0.000000e+00 0.000000e+00
    endloop
  endfacet
  facet normal 0.000000e+00 0.000000e+00 1.000000e+00
    outer loop
      vertex   0.000000e+00 0.000000e+00 0.000000e+00
      vertex   4.849031e-01 -8.161163e-02 0.000000e+00
      vertex   5.126510e-01 -4.681685e-02 0.000000e+00
    endloop
  endfacet
  facet normal 0.000000e+00 0.000000e+00 1.000000e+00
    outer loop
      vertex   0.000000e+00 0.000000e+00 0.000000e+00
      vertex   5.126510e-01 -4.681685e-02 0.000000e+00
      vertex   5.527479e-01 -2.750721e-02 0.000000e+00
    endloop
  endfacet
  facet normal 0.000000e+00 -0.000000e+00 1.000000e+00
    outer loop
      vertex   5.527479e-01 -2.750721e-02 0.000000e+00
      vertex   5.972521e-01 -2.750721e-02 0.000000e+00
      vertex   0.000000e+00 0.000000e+00 0.000000e+00
    endloop
  endfacet
  facet normal 0.000000e+00 0.000000e+00 1.000000e+00
    outer loop
      vertex   0.000000e+00 -8.000000e-01 0.000000e+00
      vertex   2.400000e+00 -8.000000e-01 0.000000e+00
      vertex   1.752748e+00 -2.224928e-01 0.000000e+00
    endloop
  endfacet
  facet normal 0.000000e+00 0.000000e+00 -1.000000e+00
    outer loop
      vertex   1.100000e-01 -4.000000e-02 -1.000000e-01
      vertex   4.000000e-02 -4.000000e-02 -1.000000e-01
      vertex   0.000000e+00 0.000000e+00 -1.000000e-01
    endloop
  endfacet
  facet normal 0.000000e+00 0.000000e+00 -1.000000e+00
    outer loop
      vertex   0.000000e+00 0.000000e+00 -1.000000e-01
      vertex   4.000000e-02 -4.000000e-02 -1.000000e-01
      vertex   4.000000e-02 -1.100000e-01 -1.000000e-01
    endloop
  endfacet
  facet normal 0.000000e+00 0.000000e+00 -1.000000e+00
    outer loop
      vertex   0.000000e+00 0.000000e+00 -1.000000e-01
      vertex   4.000000e-02 -1.100000e-01 -1.000000e-01
      vertex   0.000000e+00 -8.000000e-01 -1.000000e-01
    endloop
  endfacet
  facet normal 0.000000e+00 0.000000e+00 -1.000000e+00
    outer loop
      vertex   0.000000e+00 -8.000000e-01 -1.000000e-01
      vertex   4.000000e-02 -1.100000e-01 -1.000000e-01
      vertex   4.000000e-02 -6.900000e-01 -1.000000e-01
    endloop
  endfacet
  facet normal 0.000000e+00 0.000000e+00 -1.000000e+00
    outer loop
      vertex   0.000000e+00 -8.000000e-01 -1.000000e-01
      vertex   4.000000e-02 -6.900000e-01 -1.000000e-01
      vertex   4.000000e-02 -7.600000e-01 -1.000000e-01
    endloop
  endfacet
  facet normal 0.000000e+00 0.000000e+00 -1.000000e+00
    outer loop
      vertex   4.000000e-02 -1.100000e-01 -1.000000e-01
      vertex   1.100000e-01 -1.100000e-01 -1.000000e-01
      vertex   4.000000e-02 -6.900000e-01 -1.000000e-01
    endloop
  endfacet
  facet normal 0.000000e+00 0.000000e+00 -1.000000e+00
    outer loop
      vertex   4.000000e-02 -6.900000e-01 -1.000000e-01
      vertex   1.100000e-01 -1.100000e-01 -1.000000e-01
      vertex   1.100000e-01 -6.900000e-01 -1.000000e-01
    endloop
  endfacet
  facet normal 0.000000e+00 0.000000e+00 -1.000000e+00
    outer loop
      vertex   1.100000e-01 -6.900000e-01 -1.000000e-01
      vertex   1.100000e-01 -1.100000e-01 -1.000000e-01
      vertex   2.290000e+00 -1.100000e-01 -1.000000e-01
    endloop
  endfacet
  facet normal 0.000000e+00 0.000000e+00 -1.000000e+00
    outer loop
      vertex   1.100000e-01 -6.900000e-01 -1.000000e-01
      vertex   2.290000e+00 -1.100000e-01 -1.000000e-01
      vertex   2.290000e+00 -6.900000e-01 -1.000000e-01
    endloop
  endfacet
  facet normal 0.000000e+00 0.000000e+00 -1.000000e+00
    outer loop
      vertex   2.290000e+00 -6.900000e-01 -1.000000e-01
      vertex   2.290000e+00 -1.100000e-01 -1.000000e-01
      vertex   2.360000e+00 -1.100000e-01 -1.000000e-01
    endloop
  endfacet
  facet normal 0.000000e+00 0.000000e+00 -1.000000e+00
    outer loop
      vertex   2.290000e+00 -6.900000e-01 -1.000000e-01
      vertex   2.360000e+00 -1.100000e-01 -1.000000e-01
      vertex   2.360000e+00 -6.900000e-01 -1.000000e-01
    endloop
  endfacet
  facet normal 0.000000e+00 0.000000e+00 -1.000000e+00
    outer loop
      vertex   2.360000e+00 -6.900000e-01 -1.000000e-01
      vertex   2.360000e+00 -1.100000e-01 -1.000000e-01
      vertex   2.400000e+00 -8.000000e-01 -1.000000e-01
    endloop
  endfacet
  facet normal 0.000000e+00 0.000000e+00 -1.000000e+00
    outer loop
      vertex   2.360000e+00 -6.900000e-01 -1.000000e-01
      vertex   2.400000e+00 -8.000000e-01 -1.000000e-01
      vertex   2.360000e+00 -7.600000e-01 -1.000000e-01
    endloop
  endfacet
  facet normal -0.000000e+00 -0.000000e+00 -1.000000e+00
    outer loop
      vertex   2.360000e+00 -7.600000e-01 -1.000000e-01
      vertex   2.400000e+00 -8.000000e-01 -1.000000e-01
      vertex   2.290000e+00 -7.600000e-01 -1.000000e-01
    endloop
  endfacet
  facet normal 0.000000e+00 -0.000000e+00 -1.000000e+00
    outer loop
      vertex   2.290000e+00 -7.600000e-01 -1.000000e-01
      vertex   2.400000e+00 -8.000000e-01 -1.000000e-01
      vertex   0.000000e+00 -8.000000e-01 -1.000000e-01
    endloop
  endfacet
  facet normal -0.000000e+00 0.000000e+00 -1.000000e+00
    outer loop
      vertex   2.290000e+00 -7.600000e-01 -1.000000e-01
      vertex   0.000000e+00 -8.000000e-01 -1.000000e-01
      vertex   1.100000e-01 -7.600000e-01 -1.000000e-01
    endloop
  endfacet
  facet normal -0.000000e+00 0.000000e+00 -1.000000e+00
    outer loop
      vertex   1.100000e-01 -7.600000e-01 -1.000000e-01
      vertex   0.000000e+00 -8.000000e-01 -1.000000e-01
      vertex   4.000000e-02 -7.600000e-01 -1.000000e-01
    endloop
  endfacet
  facet normal 0.000000e+00 0.000000e+00 -1.000000e+00
    outer loop
      vertex   2.290000e+00 -1.100000e-01 -1.000000e-01
      vertex   1.100000e-01 -1.100000e-01 -1.000000e-01
      vertex   2.290000e+00 -4.000000e-02 -1.000000e-01
    endloop
  endfacet
  facet normal -0.000000e+00 0.000000e+00 -1.000000e+00
    outer loop
      vertex   2.290000e+00 -4.000000e-02 -1.000000e-01
      vertex   1.100000e-01 -1.100000e-01 -1.000000e-01
      vertex   1.100000e-01 -4.000000e-02 -1.000000e-01
    endloop
  endfacet
  facet normal 0.000000e+00 0.000000e+00 -1.000000e+00
    outer loop
      vertex   2.290000e+00 -4.000000e-02 -1.000000e-01
      vertex   1.100000e-01 -4.000000e-02 -1.000000e-01
      vertex   2.400000e+00 0.000000e+00 -1.000000e-01
    endloop
  endfacet
  facet normal -0.000000e+00 0.000000e+00 -1.000000e+00
    outer loop
      vertex   2.400000e+00 0.000000e+00 -1.000000e-01
      vertex   1.100000e-01 -4.000000e-02 -1.000000e-01
      vertex   0.000000e+00 0.000000e+00 -1.000000e-01
    endloop
  endfacet
  facet normal 0.000000e+00 0.000000e+00 -1.000000e+00
    outer loop
      vertex   2.360000e+00 -1.100000e-01 -1.000000e-01
      vertex   2.360000e+00 -4.000000e-02 -1.000000e-01
      vertex   2.400000e+00 0.000000e+00 -1.000000e-01
    endloop
  endfacet
  facet normal 0.000000e+00 0.000000e+00 -1.000000e+00
    outer loop
      vertex   2.400000e+00 0.000000e+00 -1.000000e-01
      vertex   2.360000e+00 -4.000000e-02 -1.000000e-01
      vertex   2.290000e+00 -4.000000e-02 -1.000000e-01
    endloop
  endfacet
  facet normal 0.000000e+00 0.000000e+00 -1.000000e+00
    outer loop
      vertex   2.400000e+00 -8.000000e-01 -1.000000e-01
      vertex   2.360000e+00 -1.100000e-01 -1.000000e-01
      vertex   2.400000e+00 0.000000e+00 -1.000000e-01
    endloop
  endfacet
  facet normal 0.000000e+00 0.000000e+00 -1.000000e+00
    outer loop
      vertex   1.100000e-01 -6.900000e-01 -1.000000e-01
      vertex   2.290000e+00 -6.900000e-01 -1.000000e-01
      vertex   1.100000e-01 -7.600000e-01 -1.000000e-01
    endloop
  endfacet
  facet normal 0.000000e+00 0.000000e+00 -1.000000e+00
    outer loop
      vertex   1.100000e-01 -7.600000e-01 -1.000000e-01
      vertex   2.290000e+00 -6.900000e-01 -1.000000e-01
      vertex   2.290000e+00 -7.600000e-01 -1.000000e-01
    endloop
  endfacet
  facet normal 9.749279e-01 -2.225209e-01 0.000000e+00
    outer loop
      vertex   1.865097e+00 -1.683884e-01 3.500000e-02
      vertex   1.865097e+00 -1.683884e-01 0.000000e+00
      vertex   1.875000e+00 -1.250000e-01 3.500000e-02
    endloop
  endfacet
  facet normal 9.749279e-01 -2.225209e-01 0.000000e+00
    outer loop
      vertex   1.875000e+00 -1.250000e-01 3.500000e-02
      vertex   1.865097e+00 -1.683884e-01 0.000000e+00
      vertex   1.875000e+00 -1.250000e-01 0.000000e+00
    endloop
  endfacet
  facet normal 9.749279e-01 2.225209e-01 0.000000e+00
    outer loop
      vertex   1.875000e+00 -1.250000e-01 3.500000e-02
      vertex   1.875000e+00 -1.250000e-01 0.000000e+00
      vertex   1.865097e+00 -8.161163e-02 3.500000e-02
    endloop
  endfacet
  facet normal 9.749279e-01 2.225209e-01 0.000000e+00
    outer loop
      vertex   1.865097e+00 -8.161163e-02 3.500000e-02
      vertex   1.875000e+00 -1.250000e-01 0.000000e+00
      vertex   1.865097e+00 -8.161163e-02 0.000000e+00
    endloop
  endfacet
  facet normal 7.818315e-01 6.234898e-01 0.000000e+00
    outer loop
      vertex   1.865097e+00 -8.161163e-02 3.500000e-02
      vertex   1.865097e+00 -8.161163e-02 0.000000e+00
      vertex   1.837349e+00 -4.681685e-02 3.500000e-02
    endloop
  endfacet
  facet normal 7.818315e-01 6.234898e-01 0.000000e+00
    outer loop
      vertex   1.837349e+00 -4.681685e-02 3.500000e-02
      vertex   1.865097e+00 -8.161163e-02 0.000000e+00
      vertex   1.837349e+00 -4.681685e-02 0.000000e+00
    endloop
  endfacet
  facet normal 4.338837e-01 9.009689e-01 0.000000e+00
    outer loop
      vertex   1.837349e+00 -4.681685e-02 3.500000e-02
      vertex   1.837349e+00 -4.681685e-02 0.000000e+00
      vertex   1.797252e+00 -2.750721e-02 3.500000e-02
    endloop
  endfacet
  facet normal 4.338837e-01 9.009689e-01 0.000000e+00
    outer loop
      vertex   1.797252e+00 -2.750721e-02 3.500000e-02
      vertex   1.837349e+00 -4.681685e-02 0.000000e+00
      vertex   1.797252e+00 -2.750721e-02 0.000000e+00
    endloop
  endfacet
  facet normal 0.000000e+00 1.000000e+00 0.000000e+00
    outer loop
      vertex   1.797252e+00 -2.750721e-02 3.500000e-02
      vertex   1.797252e+00 -2.750721e-02 0.000000e+00
      vertex   1.752748e+00 -2.750721e-02 3.500000e-02
    endloop
  endfacet
  facet normal 0.000000e+00 1.000000e+00 0.000000e+00
    outer loop
      vertex   1.752748e+00 -2.750721e-02 3.500000e-02
      vertex   1.797252e+00 -2.750721e-02 0.000000e+00
      vertex   1.752748e+00 -2.750721e-02 0.000000e+00
    endloop
  endfacet
  facet normal -4.338837e-01 9.009689e-01 0.000000e+00
    outer loop
      vertex   1.752748e+00 -2.750721e-02 3.500000e-02
      vertex   1.752748e+00 -2.750721e-02 0.000000e+00
      vertex   1.712651e+00 -4.681685e-02 3.500000e-02
    endloop
  endfacet
  facet normal -4.338837e-01 9.009689e-01 0.000000e+00
    outer loop
      vertex   1.712651e+00 -4.681685e-02 3.500000e-02
      vertex   1.752748e+00 -2.750721e-02 0.000000e+00
      vertex   1.712651e+00 -4.681685e-02 0.000000e+00
    endloop
  endfacet
  facet normal -7.818315e-01 6.234898e-01 0.000000e+00
    outer loop
      vertex   1.712651e+00 -4.681685e-02 3.500000e-02
      vertex   1.712651e+00 -4.681685e-02 0.000000e+00
      vertex   1.684903e+00 -8.161163e-02 3.500000e-02
    endloop
  endfacet
  facet normal -7.818315e-01 6.234898e-01 0.000000e+00
    outer loop
      vertex   1.684903e+00 -8.161163e-02 3.500000e-02
      vertex   1.712651e+00 -4.681685e-02 0.000000e+00
      vertex   1.684903e+00 -8.161163e-02 0.000000e+00
    endloop
  endfacet
  facet normal -9.749279e-01 2.225209e-01 0.000000e+00
    outer loop
      vertex   1.684903e+00 -8.161163e-02 3.500000e-02
      vertex   1.684903e+00 -8.161163e-02 0.000000e+00
      vertex   1.675000e+00 -1.250000e-01 3.500000e-02
    endloop
  endfacet
  facet normal -9.749279e-01 2.225209e-01 0.000000e+00
    outer loop
      vertex   1.675000e+00 -1.250000e-01 3.500000e-02
      vertex   1.684903e+00 -8.161163e-02 0.000000e+00
      vertex   1.675000e+00 -1.250000e-01 0.000000e+00
    endloop
  endfacet
  facet normal -9.749279e-01 -2.225209e-01 -0.000000e+00
    outer loop
      vertex   1.675000e+00 -1.250000e-01 3.500000e-02
      vertex   1.675000e+00 -1.250000e-01 0.000000e+00
      vertex   1.684903e+00 -1.683884e-01 3.500000e-02
    endloop
  endfacet
  facet normal -9.749279e-01 -2.225209e-01 -0.000000e+00
    outer loop
      vertex   1.684903e+00 -1.683884e-01 3.500000e-02
      vertex   1.675000e+00 -1.250000e-01 0.000000e+00
      vertex   1.684903e+00 -1.683884e-01 0.000000e+00
    endloop
  endfacet
  facet normal -7.818315e-01 -6.234898e-01 -0.000000e+00
    outer loop
      vertex   1.684903e+00 -1.683884e-01 3.500000e-02
      vertex   1.684903e+00 -1.683884e-01 0.000000e+00
      vertex   1.712651e+00 -2.031831e-01 3.500000e-02
    endloop
  endfacet
  facet normal -7.818315e-01 -6.234898e-01 -0.000000e+00
    outer loop
      vertex   1.712651e+00 -2.031831e-01 3.500000e-02
      vertex   1.684903e+00 -1.683884e-01 0.000000e+00
      vertex   1.712651e+00 -2.031831e-01 0.000000e+00
    endloop
  endfacet
  facet normal -4.338837e-01 -9.009689e-01 -0.000000e+00
    outer loop
      vertex   1.712651e+00 -2.031831e-01 3.500000e-02
      vertex   1.712651e+00 -2.031831e-01 0.000000e+00
      vertex   1.752748e+00 -2.224928e-01 3.500000e-02
    endloop
  endfacet
  facet normal -4.338837e-01 -9.009689e-01 -0.000000e+00
    outer loop
      vertex   1.752748e+00 -2.224928e-01 3.500000e-02
      vertex   1.712651e+00 -2.031831e-01 0.000000e+00
      vertex   1.752748e+00 -2.224928e-01 0.000000e+00
    endloop
  endfacet
  facet normal 0.000000e+00 -1.000000e+00 0.000000e+00
    outer loop
      vertex   1.752748e+00 -2.224928e-01 3.500000e-02
      vertex   1.752748e+00 -2.224928e-01 0.000000e+00
      vertex   1.797252e+00 -2.224928e-01 3.500000e-02
    endloop
  endfacet
  facet normal 0.000000e+00 -1.000000e+00 -0.000000e+00
    outer loop
      vertex   1.797252e+00 -2.224928e-01 3.500000e-02
      vertex   1.752748e+00 -2.224928e-01 0.000000e+00
      vertex   1.797252e+00 -2.224928e-01 0.000000e+00
    endloop
  endfacet
  facet normal 4.338837e-01 -9.009689e-01 0.000000e+00
    outer loop
      vertex   1.797252e+00 -2.224928e-01 3.500000e-02
      vertex   1.797252e+00 -2.224928e-01 0.000000e+00
      vertex   1.837349e+00 -2.031831e-01 3.500000e-02
    endloop
  endfacet
  facet normal 4.338837e-01 -9.009689e-01 0.000000e+00
    outer loop
      vertex   1.837349e+00 -2.031831e-01 3.500000e-02
      vertex   1.797252e+00 -2.224928e-01 0.000000e+00
      vertex   1.837349e+00 -2.031831e-01 0.000000e+00
    endloop
  endfacet
  facet normal 7.818315e-01 -6.234898e-01 0.000000e+00
    outer loop
      vertex   1.837349e+00 -2.031831e-01 3.500000e-02
      vertex   1.837349e+00 -2.031831e-01 0.000000e+00
      vertex   1.865097e+00 -1.683884e-01 3.500000e-02
    endloop
  endfacet
  facet normal 7.818315e-01 -6.234898e-01 0.000000e+00
    outer loop
      vertex   1.865097e+00 -1.683884e-01 3.500000e-02
      vertex   1.837349e+00 -2.031831e-01 0.000000e+00
      vertex   1.865097e+00 -1.683884e-01 0.000000e+00
    endloop
  endfacet
  facet normal 0.000000e+00 0.000000e+00 1.000000e+00
    outer loop
      vertex   1.865097e+00 -8.161163e-02 3.500000e-02
      vertex   1.684903e+00 -8.161163e-02 3.500000e-02
      vertex   1.875000e+00 -1.250000e-01 3.500000e-02
    endloop
  endfacet
  facet normal 0.000000e+00 0.000000e+00 1.000000e+00
    outer loop
      vertex   1.875000e+00 -1.250000e-01 3.500000e-02
      vertex   1.684903e+00 -8.161163e-02 3.500000e-02
      vertex   1.675000e+00 -1.250000e-01 3.500000e-02
    endloop
  endfacet
  facet normal 0.000000e+00 0.000000e+00 1.000000e+00
    outer loop
      vertex   1.875000e+00 -1.250000e-01 3.500000e-02
      vertex   1.675000e+00 -1.250000e-01 3.500000e-02
      vertex   1.865097e+00 -1.683884e-01 3.500000e-02
    endloop
  endfacet
  facet normal 0.000000e+00 0.000000e+00 1.000000e+00
    outer loop
      vertex   1.865097e+00 -1.683884e-01 3.500000e-02
      vertex   1.675000e+00 -1.250000e-01 3.500000e-02
      vertex   1.684903e+00 -1.683884e-01 3.500000e-02
    endloop
  endfacet
  facet normal 0.000000e+00 0.000000e+00 1.000000e+00
    outer loop
      vertex   1.865097e+00 -1.683884e-01 3.500000e-02
      vertex   1.684903e+00 -1.683884e-01 3.500000e-02
      vertex   1.837349e+00 -2.031831e-01 3.500000e-02
    endloop
  endfacet
  facet normal 0.000000e+00 0.000000e+00 1.000000e+00
    outer loop
      vertex   1.837349e+00 -2.031831e-01 3.500000e-02
      vertex   1.684903e+00 -1.683884e-01 3.500000e-02
      vertex   1.712651e+00 -2.031831e-01 3.500000e-02
    endloop
  endfacet
  facet normal 0.000000e+00 0.000000e+00 1.000000e+00
    outer loop
      vertex   1.837349e+00 -2.031831e-01 3.500000e-02
      vertex   1.712651e+00 -2.031831e-01 3.500000e-02
      vertex   1.797252e+00 -2.224928e-01 3.500000e-02
    endloop
  endfacet
  facet normal 0.000000e+00 0.000000e+00 1.000000e+00
    outer loop
      vertex   1.797252e+00 -2.224928e-01 3.500000e-02
      vertex   1.712651e+00 -2.031831e-01 3.500000e-02
      vertex   1.752748e+00 -2.224928e-01 3.500000e-02
    endloop
  endfacet
  facet normal 0.000000e+00 0.000000e+00 1.000000e+00
    outer loop
      vertex   1.684903e+00 -8.161163e-02 3.500000e-02
      vertex   1.865097e+00 -8.161163e-02 3.500000e-02
      vertex   1.712651e+00 -4.681685e-02 3.500000e-02
    endloop
  endfacet
  facet normal -0.000000e+00 0.000000e+00 1.000000e+00
    outer loop
      vertex   1.712651e+00 -4.681685e-02 3.500000e-02
      vertex   1.865097e+00 -8.161163e-02 3.500000e-02
      vertex   1.837349e+00 -4.681685e-02 3.500000e-02
    endloop
  endfacet
  facet normal 0.000000e+00 0.000000e+00 1.000000e+00
    outer loop
      vertex   1.712651e+00 -4.681685e-02 3.500000e-02
      vertex   1.837349e+00 -4.681685e-02 3.500000e-02
      vertex   1.752748e+00 -2.750721e-02 3.500000e-02
    endloop
  endfacet
  facet normal -0.000000e+00 0.000000e+00 1.000000e+00
    outer loop
      vertex   1.752748e+00 -2.750721e-02 3.500000e-02
      vertex   1.837349e+00 -4.681685e-02 3.500000e-02
      vertex   1.797252e+00 -2.750721e-02 3.500000e-02
    endloop
  endfacet
  facet normal 9.749279e-01 -2.225209e-01 0.000000e+00
    outer loop
      vertex   6.650969e-01 -1.683884e-01 3.500000e-02
      vertex   6.650969e-01 -1.683884e-01 0.000000e+00
      vertex   6.750000e-01 -1.250000e-01 3.500000e-02
    endloop
  endfacet
  facet normal 9.749279e-01 -2.225209e-01 0.000000e+00
    outer loop
      vertex   6.750000e-01 -1.250000e-01 3.500000e-02
      vertex   6.650969e-01 -1.683884e-01 0.000000e+00
      vertex   6.750000e-01 -1.250000e-01 0.000000e+00
    endloop
  endfacet
  facet normal 9.749279e-01 2.225209e-01 0.000000e+00
    outer loop
      vertex   6.750000e-01 -1.250000e-01 3.500000e-02
      vertex   6.750000e-01 -1.250000e-01 0.000000e+00
      vertex   6.650969e-01 -8.161163e-02 3.500000e-02
    endloop
  endfacet
  facet normal 9.749279e-01 2.225209e-01 0.000000e+00
    outer loop
      vertex   6.650969e-01 -8.161163e-02 3.500000e-02
      vertex   6.750000e-01 -1.250000e-01 0.000000e+00
      vertex   6.650969e-01 -8.161163e-02 0.000000e+00
    endloop
  endfacet
  facet normal 7.818315e-01 6.234898e-01 0.000000e+00
    outer loop
      vertex   6.650969e-01 -8.161163e-02 3.500000e-02
      vertex   6.650969e-01 -8.161163e-02 0.000000e+00
      vertex   6.373490e-01 -4.681685e-02 3.500000e-02
    endloop
  endfacet
  facet normal 7.818315e-01 6.234898e-01 0.000000e+00
    outer loop
      vertex   6.373490e-01 -4.681685e-02 3.500000e-02
      vertex   6.650969e-01 -8.161163e-02 0.000000e+00
      vertex   6.373490e-01 -4.681685e-02 0.000000e+00
    endloop
  endfacet
  facet normal 4.338837e-01 9.009689e-01 0.000000e+00
    outer loop
      vertex   6.373490e-01 -4.681685e-02 3.500000e-02
      vertex   6.373490e-01 -4.681685e-02 0.000000e+00
      vertex   5.972521e-01 -2.750721e-02 3.500000e-02
    endloop
  endfacet
  facet normal 4.338837e-01 9.009689e-01 0.000000e+00
    outer loop
      vertex   5.972521e-01 -2.750721e-02 3.500000e-02
      vertex   6.373490e-01 -4.681685e-02 0.000000e+00
      vertex   5.972521e-01 -2.750721e-02 0.000000e+00
    endloop
  endfacet
  facet normal 0.000000e+00 1.000000e+00 0.000000e+00
    outer loop
      vertex   5.972521e-01 -2.750721e-02 3.500000e-02
      vertex   5.972521e-01 -2.750721e-02 0.000000e+00
      vertex   5.527479e-01 -2.750721e-02 3.500000e-02
    endloop
  endfacet
  facet normal 0.000000e+00 1.000000e+00 0.000000e+00
    outer loop
      vertex   5.527479e-01 -2.750721e-02 3.500000e-02
      vertex   5.972521e-01 -2.750721e-02 0.000000e+00
      vertex   5.527479e-01 -2.750721e-02 0.000000e+00
    endloop
  endfacet
  facet normal -4.338837e-01 9.009689e-01 0.000000e+00
    outer loop
      vertex   5.527479e-01 -2.750721e-02 3.500000e-02
      vertex   5.527479e-01 -2.750721e-02 0.000000e+00
      vertex   5.126510e-01 -4.681685e-02 3.500000e-02
    endloop
  endfacet
  facet normal -4.338837e-01 9.009689e-01 0.000000e+00
    outer loop
      vertex   5.126510e-01 -4.681685e-02 3.500000e-02
      vertex   5.527479e-01 -2.750721e-02 0.000000e+00
      vertex   5.126510e-01 -4.681685e-02 0.000000e+00
    endloop
  endfacet
  facet normal -7.818315e-01 6.234898e-01 0.000000e+00
    outer loop
      vertex   5.126510e-01 -4.681685e-02 3.500000e-02
      vertex   5.126510e-01 -4.681685e-02 0.000000e+00
      vertex   4.849031e-01 -8.161163e-02 3.500000e-02
    endloop
  endfacet
  facet normal -7.818315e-01 6.234898e-01 0.000000e+00
    outer loop
      vertex   4.849031e-01 -8.161163e-02 3.500000e-02
      vertex   5.126510e-01 -4.681685e-02 0.000000e+00
      vertex   4.849031e-01 -8.161163e-02 0.000000e+00
    endloop
  endfacet
  facet normal -9.749279e-01 2.225209e-01 0.000000e+00
    outer loop
      vertex   4.849031e-01 -8.161163e-02 3.500000e-02
      vertex   4.849031e-01 -8.161163e-02 0.000000e+00
      vertex   4.750000e-01 -1.250000e-01 3.500000e-02
    endloop
  endfacet
  facet normal -9.749279e-01 2.225209e-01 0.000000e+00
    outer loop
      vertex   4.750000e-01 -1.250000e-01 3.500000e-02
      vertex   4.849031e-01 -8.161163e-02 0.000000e+00
      vertex   4.750000e-01 -1.250000e-01 0.000000e+00
    endloop
  endfacet
  facet normal -9.749279e-01 -2.225209e-01 -0.000000e+00
    outer loop
      vertex   4.750000e-01 -1.250000e-01 3.500000e-02
      vertex   4.750000e-01 -1.250000e-01 0.000000e+00
      vertex   4.849031e-01 -1.683884e-01 3.500000e-02
    endloop
  endfacet
  facet normal -9.749279e-01 -2.225209e-01 -0.000000e+00
    outer loop
      vertex   4.849031e-01 -1.683884e-01 3.500000e-02
      vertex   4.750000e-01 -1.250000e-01 0.000000e+00
      vertex   4.849031e-01 -1.683884e-01 0.000000e+00
    endloop
  endfacet
  facet normal -7.818315e-01 -6.234898e-01 -0.000000e+00
    outer loop
      vertex   4.849031e-01 -1.683884e-01 3.500000e-02
      vertex   4.849031e-01 -1.683884e-01 0.000000e+00
      vertex   5.126510e-01 -2.031831e-01 3.500000e-02
    endloop
  endfacet
  facet normal -7.818315e-01 -6.234898e-01 -0.000000e+00
    outer loop
      vertex   5.126510e-01 -2.031831e-01 3.500000e-02
      vertex   4.849031e-01 -1.683884e-01 0.000000e+00
      vertex   5.126510e-01 -2.031831e-01 0.000000e+00
    endloop
  endfacet
  facet normal -4.338837e-01 -9.009689e-01 -0.000000e+00
    outer loop
      vertex   5.126510e-01 -2.031831e-01 3.500000e-02
      vertex   5.126510e-01 -2.031831e-01 0.000000e+00
      vertex   5.527479e-01 -2.224928e-01 3.500000e-02
    endloop
  endfacet
  facet normal -4.338837e-01 -9.009689e-01 -0.000000e+00
    outer loop
      vertex   5.527479e-01 -2.224928e-01 3.500000e-02
      vertex   5.126510e-01 -2.031831e-01 0.000000e+00
      vertex   5.527479e-01 -2.224928e-01 0.000000e+00
    endloop
  endfacet
  facet normal 0.000000e+00 -1.000000e+00 0.000000e+00
    outer loop
      vertex   5.527479e-01 -2.224928e-01 3.500000e-02
      vertex   5.527479e-01 -2.224928e-01 0.000000e+00
      vertex   5.972521e-01 -2.224928e-01 3.500000e-02
    endloop
  endfacet
  facet normal 0.000000e+00 -1.000000e+00 -0.000000e+00
    outer loop
      vertex   5.972521e-01 -2.224928e-01 3.500000e-02
      vertex   5.527479e-01 -2.224928e-01 0.000000e+00
      vertex   5.972521e-01 -2.224928e-01 0.000000e+00
    endloop
  endfacet
  facet normal 4.338837e-01 -9.009689e-01 0.000000e+00
    outer loop
      vertex   5.972521e-01 -2.224928e-01 3.500000e-02
      vertex   5.972521e-01 -2.224928e-01 0.000000e+00
      vertex   6.373490e-01 -2.031831e-01 3.500000e-02
    endloop
  endfacet
  facet normal 4.338837e-01 -9.009689e-01 0.000000e+00
    outer loop
      vertex   6.373490e-01 -2.031831e-01 3.500000e-02
      vertex   5.972521e-01 -2.224928e-01 0.000000e+00
      vertex   6.373490e-01 -2.031831e-01 0.000000e+00
    endloop
  endfacet
  facet normal 7.818315e-01 -6.234898e-01 0.000000e+00
    outer loop
      vertex   6.373490e-01 -2.031831e-01 3.500000e-02
      vertex   6.373490e-01 -2.031831e-01 0.000000e+00
      vertex   6.650969e-01 -1.683884e-01 3.500000e-02
    endloop
  endfacet
  facet normal 7.818315e-01 -6.234898e-01 0.000000e+00
    outer loop
      vertex   6.650969e-01 -1.683884e-01 3.500000e-02
      vertex   6.373490e-01 -2.031831e-01 0.000000e+00
      vertex   6.650969e-01 -1.683884e-01 0.000000e+00
    endloop
  endfacet
  facet normal 0.000000e+00 0.000000e+00 1.000000e+00
    outer loop
      vertex   6.650969e-01 -8.161163e-02 3.500000e-02
      vertex   4.849031e-01 -8.161163e-02 3.500000e-02
      vertex   6.750000e-01 -1.250000e-01 3.500000e-02
    endloop
  endfacet
  facet normal 0.000000e+00 0.000000e+00 1.000000e+00
    outer loop
      vertex   6.750000e-01 -1.250000e-01 3.500000e-02
      vertex   4.849031e-01 -8.161163e-02 3.500000e-02
      vertex   4.750000e-01 -1.250000e-01 3.500000e-02
    endloop
  endfacet
  facet normal 0.000000e+00 0.000000e+00 1.000000e+00
    outer loop
      vertex   6.750000e-01 -1.250000e-01 3.500000e-02
      vertex   4.750000e-01 -1.250000e-01 3.500000e-02
      vertex   6.650969e-01 -1.683884e-01 3.500000e-02
    endloop
  endfacet
  facet normal 0.000000e+00 0.000000e+00 1.000000e+00
    outer loop
      vertex   6.650969e-01 -1.683884e-01 3.500000e-02
      vertex   4.750000e-01 -1.250000e-01 3.500000e-02
      vertex   4.849031e-01 -1.683884e-01 3.500000e-02
    endloop
  endfacet
  facet normal 0.000000e+00 0.000000e+00 1.000000e+00
    outer loop
      vertex   6.650969e-01 -1.683884e-01 3.500000e-02
      vertex   4.849031e-01 -1.683884e-01 3.500000e-02
      vertex   6.373490e-01 -2.031831e-01 3.500000e-02
    endloop
  endfacet
  facet normal 0.000000e+00 0.000000e+00 1.000000e+00
    outer loop
      vertex   6.373490e-01 -2.031831e-01 3.500000e-02
      vertex   4.849031e-01 -1.683884e-01 3.500000e-02
      vertex   5.126510e-01 -2.031831e-01 3.500000e-02
    endloop
  endfacet
  facet normal 0.000000e+00 0.000000e+00 1.000000e+00
    outer loop
      vertex   6.373490e-01 -2.031831e-01 3.500000e-02
      vertex   5.126510e-01 -2.031831e-01 3.500000e-02
      vertex   5.972521e-01 -2.224928e-01 3.500000e-02
    endloop
  endfacet
  facet normal 0.000000e+00 0.000000e+00 1.000000e+00
    outer loop
      vertex   5.972521e-01 -2.224928e-01 3.500000e-02
      vertex   5.126510e-01 -2.031831e-01 3.500000e-02
      vertex   5.527479e-01 -2.224928e-01 3.500000e-02
    endloop
  endfacet
  facet normal 0.000000e+00 0.000000e+00 1.000000e+00
    outer loop
      vertex   4.849031e-01 -8.161163e-02 3.500000e-02
      vertex   6.650969e-01 -8.161163e-02 3.500000e-02
      vertex   5.126510e-01 -4.681685e-02 3.500000e-02
    endloop
  endfacet
  facet normal -0.000000e+00 0.000000e+00 1.000000e+00
    outer loop
      vertex   5.126510e-01 -4.681685e-02 3.500000e-02
      vertex   6.650969e-01 -8.161163e-02 3.500000e-02
      vertex   6.373490e-01 -4.681685e-02 3.500000e-02
    endloop
  endfacet
  facet normal 0.000000e+00 0.000000e+00 1.000000e+00
    outer loop
      vertex   5.126510e-01 -4.681685e-02 3.500000e-02
      vertex   6.373490e-01 -4.681685e-02 3.500000e-02
      vertex   5.527479e-01 -2.750721e-02 3.500000e-02
    endloop
  endfacet
  facet normal -0.000000e+00 0.000000e+00 1.000000e+00
    outer loop
      vertex   5.527479e-01 -2.750721e-02 3.500000e-02
      vertex   6.373490e-01 -4.681685e-02 3.500000e-02
      vertex   5.972521e-01 -2.750721e-02 3.500000e-02
    endloop
  endfacet
endsolid
